<svg width="93" height="32" fill="none" xmlns="http://www.w3.org/2000/svg"><path fill-rule="evenodd" clip-rule="evenodd" d="M92.661 12.378v7.91h-4.643v-7.175c0-1.97-1-2.852-2.557-2.852-.823 0-1.705.442-2.527 1.324v8.703H78.29V0h4.644v7.35c1.116-.823 2.321-1.293 3.79-1.293 3.527 0 5.937 2.381 5.937 6.321Zm-32.092 0v7.91h-4.643v-7.175c0-1.97-1-2.852-2.557-2.852-.823 0-1.705.442-2.527 1.324v8.703h-4.644V6.439h4.644v.912c1.116-.824 2.321-1.294 3.79-1.294 3.557 0 5.937 2.381 5.937 6.321Zm-16.898 7.91V6.439h-4.585v8.674c-.822.882-1.704 1.382-2.556 1.382-1.529 0-2.557-.941-2.557-2.911V6.439h-4.644v7.85c0 3.94 2.38 6.38 5.907 6.38 1.47 0 2.675-.499 3.792-1.352v.97h4.643Zm33.091-5.675h-4.379c-.235 1.264-1.322 2.146-2.733 2.146-1.998 0-3.174-1.529-3.174-3.41 0-1.882 1.176-3.382 3.174-3.382 1.381 0 2.469.883 2.704 2.147h4.379c-.353-3.558-3.292-6.057-7.112-6.057-4.35 0-7.582 3.087-7.582 7.292 0 4.234 3.232 7.32 7.582 7.32 3.85 0 6.788-2.498 7.141-6.056ZM9.845 15.995H4.82V.853H0v19.435h12.696a7.33 7.33 0 0 1-2.85-4.293ZM26.92 6.439v13.849h-4.614v-.735c-1.029.676-2.263 1.117-3.791 1.117-3.733 0-6.877-3.205-6.877-7.321 0-4.146 3.144-7.292 6.877-7.292 1.528 0 2.762.412 3.79 1.088v-.706h4.615Zm-4.614 9.056v-4.293c-.882-.97-1.852-1.235-2.851-1.235-1.88 0-3.291 1.47-3.291 3.382 0 1.91 1.41 3.38 3.291 3.38.97 0 1.94-.264 2.85-1.234Zm30.288 9.598h.65v2.002c.124-.157.274-.276.452-.357.18-.084.389-.126.627-.126s.45.047.634.14c.184.091.338.222.462.393.126.17.222.374.287.612.065.236.098.498.098.788v.073c0 .276-.033.531-.098.767a1.885 1.885 0 0 1-.287.61c-.126.172-.28.306-.462.402-.182.095-.391.143-.627.143-.24 0-.451-.04-.634-.122a1.245 1.245 0 0 1-.455-.36c-.006-.01-.013-.017-.019-.026l-.033.438h-.595v-5.377Zm.65 2.654v1.645l.046.088c.087.149.201.271.343.367a.95.95 0 0 0 .536.144.896.896 0 0 0 .448-.105.846.846 0 0 0 .305-.298c.079-.126.137-.272.175-.438a2.42 2.42 0 0 0 .056-.532v-.073c0-.19-.018-.367-.053-.532a1.377 1.377 0 0 0-.168-.441.837.837 0 0 0-.77-.413 1.01 1.01 0 0 0-.427.084.923.923 0 0 0-.305.227 1.193 1.193 0 0 0-.185.277Zm2.777-1.065 1.352 3.747-.14.384a1.147 1.147 0 0 1-.186.368.567.567 0 0 1-.26.192 1.044 1.044 0 0 1-.461.053 1.579 1.579 0 0 1-.088-.007l.004.525a1.92 1.92 0 0 0 .364.056.97.97 0 0 0 .444-.095c.126-.06.234-.14.322-.238.089-.098.161-.201.217-.311a2.41 2.41 0 0 0 .14-.301l1.52-4.373h-.693l-.88 2.834-.948-2.834h-.707Zm9.323 3.788v-5.097h-.669v3.942L62.1 25.373h-.676v5.097h.676V26.54l2.566 3.931h.679Zm2.832-4.544v4.544h-.665v-4.544h-1.635v-.553H69.814v.553h-1.638Zm4.19 4.544v-4.544h1.639v-.553H70.067v.553H71.7v4.544h.666Zm5.126 0H76.112v-5.097h1.443c.334 0 .638.056.913.168.276.11.513.27.711.48.2.207.355.46.462.756.108.294.161.625.161.994v.305c0 .368-.053.701-.16.997a2.031 2.031 0 0 1-1.194 1.232c-.283.11-.602.165-.956.165Zm0-.55h-.704v-3.994h.767c.252 0 .475.041.668.123.197.082.362.202.498.36.135.157.238.35.308.578.07.226.105.485.105.777v.312c0 .37-.062.695-.186.973-.121.275-.303.49-.546.644-.243.152-.546.228-.91.228Zm5.002-4.547h.147l1.95 5.097h-.693l-.485-1.334H81.28l-.484 1.334h-.69l1.943-5.097H82.494Zm-1.012 3.21h1.73l-.866-2.378-.864 2.378Zm5.077-2.657v4.544h-.665v-4.544h-1.635v-.553H88.197v.553H86.56Zm3.868-.553h.147l1.95 5.097h-.693l-.485-1.334h-2.132l-.484 1.334h-.69l1.943-5.097H90.427Zm-1.012 3.21h1.73l-.866-2.378-.864 2.378Z" fill="#fff"/></svg>