<svg xmlns="http://www.w3.org/2000/svg" width="844" height="250"><path style="fill:#fff;fill-opacity:0;stroke:none" d="M1749.286 1395.22c0 91.52-74.193 165.714-165.715 165.714-91.521 0-165.714-74.193-165.714-165.715 0-91.521 74.193-165.714 165.714-165.714 91.522 0 165.715 74.193 165.715 165.714z" transform="translate(-1069.504 -927.428) scale(.75431)" fill="none"/><path transform="translate(-1069.504 -927.428) scale(.75431)" d="M1749.286 1395.22c0 91.52-74.193 165.714-165.715 165.714-91.521 0-165.714-74.193-165.714-165.715 0-91.521 74.193-165.714 165.714-165.714 91.522 0 165.715 74.193 165.715 165.714z" style="fill:#fff;fill-opacity:0;stroke:none" fill="none"/><path style="fill:#0096db;fill-opacity:1;stroke:none" d="M2047.052 2884.634c-69.033 0-125 55.966-125 125 0 69.033 55.967 125 125 125 38.522 0 72.96-17.435 95.89-44.834-21.077 21.968-50.715 35.64-83.562 35.64-63.96 0-115.83-51.846-115.83-115.806s51.87-115.807 115.83-115.807c32.823 0 62.44 13.654 83.514 35.593-22.929-27.367-57.346-44.786-95.842-44.786z" transform="translate(-1922.052 -2884.634)"/><path d="M2059.35 2900.156c60.462 0 109.478 49.017 109.478 109.478 0 60.46-49.016 109.477-109.477 109.477-33.738 0-63.9-15.27-83.982-39.266 18.46 19.24 44.416 31.215 73.185 31.215 56.017 0 101.446-45.409 101.446-101.426 0-56.018-45.429-101.426-101.446-101.426-28.747 0-54.687 11.958-73.144 31.173 20.082-23.969 50.225-39.225 83.94-39.225z" style="fill:#a83da3;fill-opacity:1;stroke:none" transform="translate(-1922.052 -2884.634)"/><path style="font-size:114.44565582px;font-style:normal;font-variant:normal;font-weight:400;font-stretch:normal;text-align:start;line-height:125%;letter-spacing:0;word-spacing:0;writing-mode:lr-tb;text-anchor:start;fill:#a83da3;fill-opacity:1;stroke:none;font-family:NordiquePro-Semibold;-inkscape-font-specification:NordiquePro-Semibold" d="M1141.767 1781.858c-12.492 0-22.338 2.627-29.567 7.845 3.84 4.615 6.63 10.098 8.439 16.283.255-.24.51-.491.781-.719 4.52-3.798 11.305-5.688 20.347-5.688h35.255v-17.721h-35.255zM1123.264 1839.365v19.597c5.348 1.638 11.502 2.438 18.503 2.438h35.255v-17.722h-35.255c-7.89 0-14.057-1.42-18.503-4.313z" transform="translate(-1034.102 -1783.448) scale(1.04766)"/><path style="font-size:114.44565582px;font-style:normal;font-variant:normal;font-weight:400;font-stretch:normal;text-align:start;line-height:125%;letter-spacing:0;word-spacing:0;writing-mode:lr-tb;text-anchor:start;fill:#0096db;fill-opacity:1;stroke:none;font-family:NordiquePro-Semibold;-inkscape-font-specification:NordiquePro-Semibold" d="M1075.508 1781.858c-12.053 0-21.71 3.715-28.941 11.126-7.231 7.411-10.846 18.488-10.846 33.192v35.224h17.721v-35.224c0-9.04 1.891-15.828 5.689-20.346 3.797-4.519 9.268-6.783 16.377-6.783 7.11 0 12.548 2.264 16.346 6.783 3.466 4.124 5.354 10.142 5.657 18.033.434 11.019 4.115 19.912 11.064 26.691a32.59 32.59 0 0 0 6.688 5.001v-29.379c0-14.704-3.614-25.78-10.845-33.192-7.23-7.41-16.858-11.126-28.91-11.126z" transform="translate(-1034.102 -1783.448) scale(1.04766)"/><path style="font-size:114.44565582px;font-style:normal;font-variant:normal;font-weight:400;font-stretch:normal;text-align:start;line-height:125%;letter-spacing:0;word-spacing:0;writing-mode:lr-tb;text-anchor:start;fill:#0096db;fill-opacity:1;stroke:none;font-family:NordiquePro-Semibold;-inkscape-font-specification:NordiquePro-Semibold" d="M3022.831 3008.246c0-12.538-3.083-21.968-9.249-28.287-6.166-6.32-14.387-9.48-24.665-9.48-10.277 0-18.499 3.16-24.665 9.48s-9.249 15.749-9.249 28.287v40.543h15.106v-40.543c0-7.709 1.62-13.49 4.857-17.342 3.238-3.853 7.889-5.78 13.951-5.78 6.063 0 10.713 1.927 13.951 5.78 3.238 3.853 4.857 9.634 4.857 17.342v40.543h15.106zM3084.802 2971.712v40.542c0 7.71-1.619 13.49-4.857 17.343-3.238 3.853-7.889 5.78-13.95 5.78-6.063 0-10.714-1.927-13.952-5.78-3.238-3.853-4.857-9.634-4.857-17.343v-40.542h-15.106v40.542c0 12.54 3.083 21.969 9.249 28.288 6.166 6.32 14.388 9.48 24.665 9.48 10.278 0 18.5-3.16 24.665-9.48 6.166-6.32 9.25-15.749 9.25-28.287v-40.543z" transform="matrix(1.06458 0 0 1.06458 -2870.846 -3079.66)"/><path style="font-size:114.44565582px;font-style:normal;font-variant:normal;font-weight:400;font-stretch:normal;text-align:start;line-height:125%;letter-spacing:0;word-spacing:0;writing-mode:lr-tb;text-anchor:start;fill:#a83da3;fill-opacity:1;stroke:none;font-family:NordiquePro-Semibold;-inkscape-font-specification:NordiquePro-Semibold" d="M3148.156 3050.021c-7.191 0-13.845-1.772-19.96-5.318-6.116-3.545-10.947-8.375-14.492-14.49-3.546-6.114-5.319-12.768-5.319-19.963 0-7.194 1.773-13.848 5.319-19.963 3.545-6.114 8.376-10.944 14.492-14.49 6.115-3.545 12.769-5.317 19.96-5.318 8.327 0 15.83 2.364 22.509 7.092 6.678 4.728 11.405 10.843 14.181 18.345h-16.188a25.282 25.282 0 0 0-8.63-7.863c-3.495-1.953-7.4-2.929-11.716-2.929-4.623 0-8.836 1.105-12.639 3.314-3.802 2.21-6.783 5.241-8.943 9.094-2.16 3.853-3.239 8.093-3.239 12.718 0 4.626 1.105 8.866 3.314 12.719 2.21 3.853 5.191 6.884 8.944 9.093 3.752 2.21 7.94 3.315 12.563 3.315 4.215 0 8.043-.925 11.485-2.774 3.442-1.848 6.294-4.418 8.555-7.708h16.494c-2.776 7.502-7.503 13.565-14.181 18.19-6.68 4.624-14.182 6.936-22.509 6.936zM3232.46 3050.021c-7.192 0-13.82-1.772-19.884-5.318-6.064-3.545-10.895-8.375-14.492-14.49-3.597-6.114-5.396-12.768-5.396-19.963 0-7.194 1.799-13.848 5.396-19.963 3.597-6.114 8.428-10.944 14.492-14.49 6.064-3.545 12.692-5.317 19.883-5.318 7.195 0 13.824 1.773 19.888 5.319 6.064 3.545 10.869 8.375 14.414 14.49 3.546 6.114 5.319 12.768 5.319 19.962v38.539h-15.11v-12.18c-1.848 3.804-5.059 6.99-9.633 9.56-4.574 2.568-9.534 3.852-14.878 3.852zm.154-14.644c4.626 0 8.79-1.105 12.488-3.315 3.7-2.209 6.628-5.24 8.786-9.093 2.157-3.853 3.236-8.093 3.236-12.719 0-4.625-1.053-8.865-3.159-12.718-2.106-3.853-5.034-6.884-8.785-9.094-3.751-2.209-7.94-3.314-12.566-3.314-4.622 0-8.835 1.105-12.638 3.314-3.803 2.21-6.784 5.241-8.943 9.094-2.16 3.853-3.239 8.093-3.239 12.718 0 4.626 1.105 8.866 3.314 12.719 2.21 3.853 5.19 6.884 8.943 9.093 3.753 2.21 7.94 3.315 12.563 3.315zM3366.624 2970.48c10.07 0 18.163 3.185 24.277 9.556 6.114 6.372 9.171 15.775 9.171 28.21v40.543h-15.106v-40.543c0-7.709-1.567-13.49-4.702-17.342-3.134-3.853-7.681-5.78-13.64-5.78-5.859 0-10.381 1.927-13.568 5.78-3.186 3.853-4.78 9.633-4.78 17.342v40.543h-15.105v-40.543c0-7.709-1.567-13.49-4.702-17.342-3.135-3.853-7.682-5.78-13.64-5.78-5.859 0-10.382 1.927-13.568 5.78s-4.78 9.633-4.78 17.342v40.543h-15.105v-40.543c0-12.435 3.057-21.838 9.17-28.21 6.115-6.37 14.209-9.556 24.283-9.557 5.755 0 10.893 1.208 15.414 3.623 4.52 2.415 8.015 5.986 10.483 10.712 2.465-4.726 5.96-8.297 10.482-10.712 4.522-2.415 9.66-3.622 15.416-3.622zM3409.337 3010.25c0-7.194 1.773-13.849 5.318-19.963 3.546-6.114 8.35-10.944 14.415-14.49 6.064-3.545 12.691-5.318 19.883-5.318 7.194 0 13.824 1.773 19.888 5.319 6.064 3.545 10.894 8.375 14.492 14.49 3.597 6.113 5.396 12.768 5.396 19.962 0 7.195-1.8 13.85-5.396 19.964-3.598 6.114-8.428 10.944-14.492 14.49-6.064 3.545-12.694 5.317-19.888 5.317-5.034 0-9.607-.976-13.718-2.928-4.112-1.952-7.658-4.675-10.637-8.17v40.699h-15.261v-69.372zm39.616 25.127c4.626 0 8.814-1.105 12.565-3.315 3.751-2.21 6.706-5.24 8.863-9.093 2.158-3.853 3.237-8.093 3.237-12.719 0-4.626-1.079-8.865-3.237-12.718-2.157-3.853-5.112-6.884-8.863-9.094-3.75-2.21-7.94-3.314-12.565-3.314-4.623 0-8.81 1.105-12.561 3.314-3.751 2.21-6.705 5.241-8.863 9.094-2.158 3.853-3.237 8.092-3.237 12.718 0 4.626 1.08 8.866 3.237 12.719 2.158 3.853 5.138 6.884 8.94 9.093 3.803 2.21 7.964 3.315 12.484 3.315z" transform="matrix(1.06458 0 0 1.06458 -2870.846 -3079.66)"/></svg>